# xmcd CD database file
#
# Track frame offsets:
#	150
#	26474
#	46737
#	78259
#	112316
#	145545
#	167297
#	199710
#	226826
#	248056
#	263039
#
# Disc length: 3809 seconds
#
# Revision: 0
# Processed by: cddbd v1.5.2PL0 Copyright (c) Steve Scherf et al.
# Submitted via: CDex 1.81
#
DISCID=7e0edf0b
DTITLE=Maynard Ferguson - M.F. Horn 2 (part 2) and M.F. Horn 3
DYEAR=1973
DGENRE=Jazz
TTITLE0=Mother
TTITLE1=Spinning Wheel
TTITLE2=Free Wheeler
TTITLE3=Hey Jude
TTITLE4=Awright, Awright
TTITLE5=Round Midnight
TTITLE6=Nice 'n Juicy
TTITLE7=Pocahontas
TTITLE8=Love Theme from "The Valachi Papers"
TTITLE9=Mother Fingers
TTITLE10=S.O.M.F.
EXTD=YEAR: 1973
EXTT0=
EXTT1=
EXTT2=
EXTT3=
EXTT4=
EXTT5=
EXTT6=
EXTT7=
EXTT8=
EXTT9=
EXTT10=
PLAYORDER=
